<mxfile host="app.diagrams.net" agent="Mozilla/5.0 (Macintosh; Intel Mac OS X 10_15_7) AppleWebKit/537.36 (KHTML, like Gecko) Chrome/127.0.0.0 Safari/537.36" version="24.7.7">
  <diagram name="페이지-1" id="QfcAg5GOzX3MGVZKoO3g">
    <mxGraphModel dx="1434" dy="820" grid="1" gridSize="10" guides="1" tooltips="1" connect="1" arrows="1" fold="1" page="1" pageScale="1" pageWidth="1169" pageHeight="827" math="0" shadow="0">
      <root>
        <mxCell id="0" />
        <mxCell id="1" parent="0" />
        <mxCell id="w25cMoAu-oBnSmBCKfsw-6" value="" style="edgeStyle=orthogonalEdgeStyle;rounded=0;orthogonalLoop=1;jettySize=auto;html=1;" edge="1" parent="1" source="w25cMoAu-oBnSmBCKfsw-1" target="w25cMoAu-oBnSmBCKfsw-5">
          <mxGeometry relative="1" as="geometry" />
        </mxCell>
        <mxCell id="w25cMoAu-oBnSmBCKfsw-1" value="Arduino Nano" style="rounded=1;whiteSpace=wrap;html=1;" vertex="1" parent="1">
          <mxGeometry x="145" y="340" width="110" height="50" as="geometry" />
        </mxCell>
        <mxCell id="w25cMoAu-oBnSmBCKfsw-3" value="" style="edgeStyle=orthogonalEdgeStyle;rounded=0;orthogonalLoop=1;jettySize=auto;html=1;" edge="1" parent="1" source="w25cMoAu-oBnSmBCKfsw-2" target="w25cMoAu-oBnSmBCKfsw-1">
          <mxGeometry relative="1" as="geometry" />
        </mxCell>
        <mxCell id="w25cMoAu-oBnSmBCKfsw-2" value="Speed sensor" style="rounded=1;whiteSpace=wrap;html=1;" vertex="1" parent="1">
          <mxGeometry x="155" y="270" width="90" height="45" as="geometry" />
        </mxCell>
        <mxCell id="w25cMoAu-oBnSmBCKfsw-26" style="edgeStyle=orthogonalEdgeStyle;rounded=0;orthogonalLoop=1;jettySize=auto;html=1;entryX=0.5;entryY=0;entryDx=0;entryDy=0;" edge="1" parent="1" source="w25cMoAu-oBnSmBCKfsw-5" target="w25cMoAu-oBnSmBCKfsw-15">
          <mxGeometry relative="1" as="geometry" />
        </mxCell>
        <mxCell id="w25cMoAu-oBnSmBCKfsw-5" value="MCP2515&lt;div&gt;CAN BUS module&lt;/div&gt;" style="rounded=1;whiteSpace=wrap;html=1;" vertex="1" parent="1">
          <mxGeometry x="140" y="420" width="120" height="58" as="geometry" />
        </mxCell>
        <mxCell id="w25cMoAu-oBnSmBCKfsw-36" style="edgeStyle=orthogonalEdgeStyle;rounded=0;orthogonalLoop=1;jettySize=auto;html=1;entryX=0;entryY=0.5;entryDx=0;entryDy=0;" edge="1" parent="1" source="w25cMoAu-oBnSmBCKfsw-15" target="w25cMoAu-oBnSmBCKfsw-34">
          <mxGeometry relative="1" as="geometry" />
        </mxCell>
        <mxCell id="w25cMoAu-oBnSmBCKfsw-15" value="2-CH CAN FD HAT" style="rounded=1;whiteSpace=wrap;html=1;" vertex="1" parent="1">
          <mxGeometry x="140" y="550" width="120" height="60" as="geometry" />
        </mxCell>
        <mxCell id="w25cMoAu-oBnSmBCKfsw-22" value="CAN BUS" style="rounded=1;whiteSpace=wrap;html=1;" vertex="1" parent="1">
          <mxGeometry x="165.62" y="495" width="68.75" height="30" as="geometry" />
        </mxCell>
        <mxCell id="w25cMoAu-oBnSmBCKfsw-16" value="Raspberry Pi" style="swimlane;" vertex="1" parent="1">
          <mxGeometry x="290" y="180" width="410" height="480" as="geometry" />
        </mxCell>
        <mxCell id="w25cMoAu-oBnSmBCKfsw-14" value="Main application" style="swimlane;" vertex="1" parent="w25cMoAu-oBnSmBCKfsw-16">
          <mxGeometry x="30" y="45" width="350" height="405" as="geometry" />
        </mxCell>
        <mxCell id="w25cMoAu-oBnSmBCKfsw-38" value="" style="edgeStyle=orthogonalEdgeStyle;rounded=0;orthogonalLoop=1;jettySize=auto;html=1;" edge="1" parent="w25cMoAu-oBnSmBCKfsw-14" source="w25cMoAu-oBnSmBCKfsw-34" target="w25cMoAu-oBnSmBCKfsw-37">
          <mxGeometry relative="1" as="geometry" />
        </mxCell>
        <mxCell id="w25cMoAu-oBnSmBCKfsw-34" value="CAN message receiver" style="rounded=1;whiteSpace=wrap;html=1;" vertex="1" parent="w25cMoAu-oBnSmBCKfsw-14">
          <mxGeometry x="20" y="325" width="120" height="60" as="geometry" />
        </mxCell>
        <mxCell id="w25cMoAu-oBnSmBCKfsw-42" style="edgeStyle=orthogonalEdgeStyle;rounded=0;orthogonalLoop=1;jettySize=auto;html=1;entryX=0.5;entryY=1;entryDx=0;entryDy=0;" edge="1" parent="w25cMoAu-oBnSmBCKfsw-14" source="w25cMoAu-oBnSmBCKfsw-37" target="w25cMoAu-oBnSmBCKfsw-54">
          <mxGeometry relative="1" as="geometry">
            <mxPoint x="97.5" y="160" as="targetPoint" />
          </mxGeometry>
        </mxCell>
        <mxCell id="w25cMoAu-oBnSmBCKfsw-37" value="Filter" style="rounded=1;whiteSpace=wrap;html=1;" vertex="1" parent="w25cMoAu-oBnSmBCKfsw-14">
          <mxGeometry x="35" y="206.5" width="90" height="50" as="geometry" />
        </mxCell>
        <mxCell id="w25cMoAu-oBnSmBCKfsw-53" value="QML" style="swimlane;" vertex="1" parent="w25cMoAu-oBnSmBCKfsw-14">
          <mxGeometry x="20" y="45" width="320" height="105" as="geometry" />
        </mxCell>
        <mxCell id="w25cMoAu-oBnSmBCKfsw-54" value="Speedometer" style="rounded=1;whiteSpace=wrap;html=1;" vertex="1" parent="w25cMoAu-oBnSmBCKfsw-53">
          <mxGeometry x="30" y="40" width="90" height="50" as="geometry" />
        </mxCell>
        <mxCell id="w25cMoAu-oBnSmBCKfsw-55" value="BatteryIndicator" style="rounded=1;whiteSpace=wrap;html=1;" vertex="1" parent="w25cMoAu-oBnSmBCKfsw-53">
          <mxGeometry x="144" y="40" width="150" height="50" as="geometry" />
        </mxCell>
        <mxCell id="w25cMoAu-oBnSmBCKfsw-65" style="edgeStyle=orthogonalEdgeStyle;rounded=0;orthogonalLoop=1;jettySize=auto;html=1;" edge="1" parent="w25cMoAu-oBnSmBCKfsw-14" source="w25cMoAu-oBnSmBCKfsw-64" target="w25cMoAu-oBnSmBCKfsw-55">
          <mxGeometry relative="1" as="geometry" />
        </mxCell>
        <mxCell id="w25cMoAu-oBnSmBCKfsw-64" value="BatteryChecker" style="rounded=1;whiteSpace=wrap;html=1;" vertex="1" parent="w25cMoAu-oBnSmBCKfsw-14">
          <mxGeometry x="190" y="235" width="120" height="60" as="geometry" />
        </mxCell>
        <mxCell id="w25cMoAu-oBnSmBCKfsw-56" value="INA219" style="swimlane;whiteSpace=wrap;html=1;" vertex="1" parent="1">
          <mxGeometry x="730" y="325" width="330" height="200" as="geometry" />
        </mxCell>
        <mxCell id="w25cMoAu-oBnSmBCKfsw-61" value="" style="edgeStyle=orthogonalEdgeStyle;rounded=0;orthogonalLoop=1;jettySize=auto;html=1;" edge="1" parent="w25cMoAu-oBnSmBCKfsw-56" source="w25cMoAu-oBnSmBCKfsw-57" target="w25cMoAu-oBnSmBCKfsw-60">
          <mxGeometry relative="1" as="geometry" />
        </mxCell>
        <mxCell id="w25cMoAu-oBnSmBCKfsw-57" value="BUS voltage register" style="rounded=1;whiteSpace=wrap;html=1;" vertex="1" parent="w25cMoAu-oBnSmBCKfsw-56">
          <mxGeometry x="180" y="39" width="140" height="35" as="geometry" />
        </mxCell>
        <mxCell id="w25cMoAu-oBnSmBCKfsw-63" value="" style="edgeStyle=orthogonalEdgeStyle;rounded=0;orthogonalLoop=1;jettySize=auto;html=1;" edge="1" parent="w25cMoAu-oBnSmBCKfsw-56" source="w25cMoAu-oBnSmBCKfsw-59" target="w25cMoAu-oBnSmBCKfsw-60">
          <mxGeometry relative="1" as="geometry" />
        </mxCell>
        <mxCell id="w25cMoAu-oBnSmBCKfsw-59" value="Current register" style="rounded=1;whiteSpace=wrap;html=1;" vertex="1" parent="w25cMoAu-oBnSmBCKfsw-56">
          <mxGeometry x="180" y="139" width="140" height="35" as="geometry" />
        </mxCell>
        <mxCell id="w25cMoAu-oBnSmBCKfsw-62" value="" style="edgeStyle=orthogonalEdgeStyle;rounded=0;orthogonalLoop=1;jettySize=auto;html=1;" edge="1" parent="w25cMoAu-oBnSmBCKfsw-56" source="w25cMoAu-oBnSmBCKfsw-58" target="w25cMoAu-oBnSmBCKfsw-60">
          <mxGeometry relative="1" as="geometry" />
        </mxCell>
        <mxCell id="w25cMoAu-oBnSmBCKfsw-58" value="Shunt voltage register" style="rounded=1;whiteSpace=wrap;html=1;" vertex="1" parent="w25cMoAu-oBnSmBCKfsw-56">
          <mxGeometry x="180" y="89" width="140" height="35" as="geometry" />
        </mxCell>
        <mxCell id="w25cMoAu-oBnSmBCKfsw-60" value="I2C interface" style="rounded=1;whiteSpace=wrap;html=1;" vertex="1" parent="w25cMoAu-oBnSmBCKfsw-56">
          <mxGeometry x="20" y="46" width="120" height="121" as="geometry" />
        </mxCell>
        <mxCell id="w25cMoAu-oBnSmBCKfsw-66" style="edgeStyle=orthogonalEdgeStyle;rounded=0;orthogonalLoop=1;jettySize=auto;html=1;entryX=1;entryY=0.5;entryDx=0;entryDy=0;" edge="1" parent="1" source="w25cMoAu-oBnSmBCKfsw-60" target="w25cMoAu-oBnSmBCKfsw-64">
          <mxGeometry relative="1" as="geometry" />
        </mxCell>
      </root>
    </mxGraphModel>
  </diagram>
</mxfile>
